<svg xmlns="http://www.w3.org/2000/svg" viewBox="0 0 64 64" width="64" height="64" role="img" aria-label="Afriland First Bank">
  <!-- Icône seule (sans texte), dérivée du logo officiel Afriland First Bank, pour favicon / avatars. -->
  <rect width="64" height="64" rx="10" fill="#FFFFFF" />
  <rect x="0" y="0" width="18" height="64" rx="4" fill="#C8102E" />
  <path d="M46 6 A26 26 0 1 0 46 58 A20 20 0 1 1 46 6 Z" fill="#111111" />
  <path d="M44 14 A18 18 0 1 0 44 50 A13 13 0 1 1 44 14 Z" fill="#7A7A7A" />
  <path d="M42 22 A10 10 0 1 0 42 42 A6 6 0 1 1 42 22 Z" fill="#BFBFBF" />
  <circle cx="49" cy="32" r="4" fill="#C8102E" />
</svg>
